<?xml version="1.0" encoding="UTF-8"?>
<svg width="48px" height="48px" viewBox="0 0 48 48" version="1.1" xmlns="http://www.w3.org/2000/svg" xmlns:xlink="http://www.w3.org/1999/xlink">
    <!-- Generator: Sketch 54.1 (76490) - https://sketchapp.com -->
    <title>Artboard</title>
    <desc>Created with Sketch.</desc>
    <defs>
        <linearGradient x1="38.1484755%" y1="0%" x2="52.936249%" y2="92.8566565%" id="linearGradient-1">
            <stop stop-color="#6E60E1" offset="0%"></stop>
            <stop stop-color="#1B3B87" offset="100%"></stop>
        </linearGradient>
        <path d="M24,43 C13.5065898,43 5,34.4934102 5,24 C5,13.5065898 13.5065898,5 24,5 C34.4934102,5 43,13.5065898 43,24 C43,34.4934102 34.4934102,43 24,43 Z M24,32 C28.418278,32 32,28.418278 32,24 C32,19.581722 28.418278,16 24,16 C19.581722,16 16,19.581722 16,24 C16,28.418278 19.581722,32 24,32 Z" id="path-2"></path>
        <filter x="-18.4%" y="-13.2%" width="136.8%" height="136.8%" filterUnits="objectBoundingBox" id="filter-3">
            <feOffset dx="0" dy="2" in="SourceAlpha" result="shadowOffsetOuter1"></feOffset>
            <feGaussianBlur stdDeviation="2" in="shadowOffsetOuter1" result="shadowBlurOuter1"></feGaussianBlur>
            <feColorMatrix values="0 0 0 0 0.350371667   0 0 0 0 0.301511793   0 0 0 0 0.729421422  0 0 0 0.5 0" type="matrix" in="shadowBlurOuter1"></feColorMatrix>
        </filter>
    </defs>
    <g id="Artboard" stroke="none" stroke-width="1" fill="none" fill-rule="evenodd">
        <g id="Combined-Shape">
            <use fill="black" fill-opacity="1" filter="url(#filter-3)" xlink:href="#path-2"></use>
            <use fill="url(#linearGradient-1)" fill-rule="evenodd" xlink:href="#path-2"></use>
        </g>
    </g>
</svg>