<svg id="bb3bfac7-5d5b-4047-9b9c-dc60ee6ed405" data-name="Layer 1" xmlns="http://www.w3.org/2000/svg" width="1146" height="790.98" viewBox="0 0 1146 790.98"><title>social share</title><g opacity="0.6"><path d="M202.37,412.33l3-136.39a8.07,8.07,0,0,1,7.3-7.85,1029.74,1029.74,0,0,1,194.08,0,8.07,8.07,0,0,1,7.34,8V412.46a8.06,8.06,0,0,1-7.67,8.05c-66.86,3.14-132.38,3.29-196.37,0A8.06,8.06,0,0,1,202.37,412.33Z" transform="translate(-27 -54.51)" fill="#36334a"/><path d="M202.37,412.33l3-136.39a8.07,8.07,0,0,1,7.3-7.85,1029.74,1029.74,0,0,1,194.08,0,8.07,8.07,0,0,1,7.34,8V412.46a8.06,8.06,0,0,1-7.67,8.05c-66.86,3.14-132.38,3.29-196.37,0A8.06,8.06,0,0,1,202.37,412.33Z" transform="translate(-27 -54.51)" fill="#36334a"/><path d="M202.37,412.33l3-136.39a8.07,8.07,0,0,1,7.3-7.85,1029.74,1029.74,0,0,1,194.08,0,8.07,8.07,0,0,1,7.34,8V412.46a8.06,8.06,0,0,1-7.67,8.05c-66.86,3.14-132.38,3.29-196.37,0A8.06,8.06,0,0,1,202.37,412.33Z" transform="translate(-27 -54.51)" fill="#6c63ff" opacity="0.2"/><rect x="197.5" y="238.48" width="74" height="17" rx="2.25" fill="#6c63ff"/><rect x="198" y="267.98" width="169" height="8" rx="2.25" fill="#6c63ff" opacity="0.3"/><rect x="198" y="288.98" width="169" height="8" rx="2.25" fill="#6c63ff" opacity="0.3"/><rect x="198" y="309.98" width="112" height="8" rx="2.25" fill="#6c63ff" opacity="0.3"/></g><g opacity="0.6"><path d="M691.37,203.33l3-136.39a8.07,8.07,0,0,1,7.3-7.85,1029.74,1029.74,0,0,1,194.08,0,8.07,8.07,0,0,1,7.34,8V203.46a8.06,8.06,0,0,1-7.67,8c-66.86,3.14-132.38,3.29-196.37,0A8.06,8.06,0,0,1,691.37,203.33Z" transform="translate(-27 -54.51)" fill="#36334a"/><path d="M691.37,203.33l3-136.39a8.07,8.07,0,0,1,7.3-7.85,1029.74,1029.74,0,0,1,194.08,0,8.07,8.07,0,0,1,7.34,8V203.46a8.06,8.06,0,0,1-7.67,8c-66.86,3.14-132.38,3.29-196.37,0A8.06,8.06,0,0,1,691.37,203.33Z" transform="translate(-27 -54.51)" fill="#36334a"/><path d="M691.37,203.33l3-136.39a8.07,8.07,0,0,1,7.3-7.85,1029.74,1029.74,0,0,1,194.08,0,8.07,8.07,0,0,1,7.34,8V203.46a8.06,8.06,0,0,1-7.67,8c-66.86,3.14-132.38,3.29-196.37,0A8.06,8.06,0,0,1,691.37,203.33Z" transform="translate(-27 -54.51)" fill="#6c63ff" opacity="0.2"/><rect x="686.5" y="29.48" width="74" height="17" rx="2.25" fill="#6c63ff"/><rect x="687" y="58.98" width="169" height="8" rx="2.25" fill="#6c63ff" opacity="0.3"/><rect x="687" y="79.98" width="169" height="8" rx="2.25" fill="#6c63ff" opacity="0.3"/><rect x="687" y="100.98" width="112" height="8" rx="2.25" fill="#6c63ff" opacity="0.3"/></g><path d="M1173,742c0,9.49-7.07,18.67-20.31,27.4-9.46,6.24-22.06,12.24-37.49,17.94-44,16.29-110.92,30.17-193.18,40.28q-10.39,1.27-21.1,2.48c-87.45,9.76-190.54,15.4-300.92,15.4-316.46,0-573-46.34-573-103.5s256.54-103.5,573-103.5S1173,684.83,1173,742Z" transform="translate(-27 -54.51)" fill="#3f3d56"/><ellipse cx="541" cy="716.98" rx="210" ry="42" opacity="0.1"/><path d="M1109,706c0,23.2-74,42.49-190,42.49s-210-18.81-210-42,94-42,210-42S1109,682.8,1109,706Z" transform="translate(-27 -54.51)" opacity="0.1"/><path d="M1149.69,768c-8.84,6.7-20.42,13.17-34.49,19.33-44,16.29-110.92,30.17-193.18,40.28q-10.39,1.27-21.1,2.48c-20.84-6.54-32.92-14.28-32.92-22.6,0-23.2,94-42,210-42C1103.18,765.49,1127.32,766.38,1149.69,768Z" transform="translate(-27 -54.51)" opacity="0.1"/><rect x="712.58" y="192" width="10.31" height="85.02" rx="2.29" fill="#3f3d56"/><rect x="369.76" y="125.4" width="5.79" height="27.99" rx="1.5" fill="#3f3d56"/><rect x="369.55" y="176.64" width="6.52" height="48.72" rx="1.69" fill="#3f3d56"/><rect x="369.65" y="242.4" width="6.21" height="49.14" rx="1.61" fill="#3f3d56"/><rect x="373.04" y="32.9" width="345.1" height="701.37" rx="35.69" fill="#3f3d56"/><rect x="512.3" y="53.84" width="48.19" height="9.79" rx="2.54" fill="#36334a"/><circle cx="573.33" cy="58.74" r="5.55" fill="#36334a"/><path d="M723.83,133.09v610a27.41,27.41,0,0,1-27.41,27.4H448.76a27.41,27.41,0,0,1-27.41-27.4v-610a27.41,27.41,0,0,1,27.41-27.41h37.06v4.76A22.58,22.58,0,0,0,508.39,133h126a22.57,22.57,0,0,0,22.57-22.57v-4.76h39.51A27.41,27.41,0,0,1,723.83,133.09Z" transform="translate(-27 -54.51)" fill="#36334a"/><rect x="403" y="109.47" width="31" height="4" fill="#3f3d56"/><rect x="403" y="116.47" width="31" height="4" fill="#3f3d56"/><rect x="403" y="123.47" width="31" height="4" fill="#3f3d56"/><rect x="403" y="109.47" width="31" height="4" fill="#3f3d56"/><rect x="403" y="116.47" width="31" height="4" fill="#3f3d56"/><rect x="403" y="123.47" width="31" height="4" fill="#3f3d56"/><path d="M709.66,174h-.91l-.35-.29a7.61,7.61,0,0,0,1.78-4.89,7.44,7.44,0,1,0-7.4,7.48,7.73,7.73,0,0,0,4.88-1.78l.34.28v.92l5.74,5.76,1.72-1.73Zm-6.88,0a5.18,5.18,0,1,1,5.16-5.18A5.15,5.15,0,0,1,702.78,174Z" transform="translate(-27 -54.51)" fill="#3f3d56"/><path d="M62.6,731.14c3-5.51-.4-12.26-4.29-17.17s-8.61-10-8.51-16.29c.15-9,9.7-14.32,17.33-19.09a84,84,0,0,0,15.56-12.51,23,23,0,0,0,4.78-6.4c1.58-3.52,1.54-7.52,1.44-11.37Q88.4,629,87,609.82" transform="translate(-27 -54.51)" fill="none" stroke="#3f3d56" stroke-miterlimit="10" stroke-width="4"/><path d="M101.51,609.12a14,14,0,0,0-7-11.5l-3.14,6.21.1-7.52a14.22,14.22,0,0,0-4.63-.56,14,14,0,1,0,14.68,13.37Z" transform="translate(-27 -54.51)" fill="#57b894"/><path d="M76.48,704.11a14,14,0,1,1,.68-11.3l-8.77,7.13L78,697.71A14,14,0,0,1,76.48,704.11Z" transform="translate(-27 -54.51)" fill="#57b894"/><path d="M69.55,676.86a14,14,0,0,1-4.45-27.53L65,655.11l3.18-6.29s0,0,0,0a14,14,0,0,1,14.67,13.36,13.84,13.84,0,0,1-.6,4.79A14,14,0,0,1,69.55,676.86Z" transform="translate(-27 -54.51)" fill="#57b894"/><path d="M103.62,654.19a14,14,0,1,1,6.21-26.27l-2.48,6.8,5.1-4.9a14,14,0,0,1,4.53,9.69,13.79,13.79,0,0,1-.35,3.87A14.05,14.05,0,0,1,103.62,654.19Z" transform="translate(-27 -54.51)" fill="#57b894"/><path d="M99.62,612.86c-3.24.35-6.39,1.36-9.64,1.56s-6.82-.58-8.88-3.1c-1.1-1.36-1.66-3.09-2.59-4.57A10,10,0,0,0,75,603.42a14,14,0,1,0,26.24,9.32Q100.42,612.77,99.62,612.86Z" transform="translate(-27 -54.51)" opacity="0.1"/><path d="M103.62,654.19a14,14,0,0,1-13.35-20A10.37,10.37,0,0,1,93.09,637c1,1.51,1.61,3.25,2.78,4.64,2.19,2.57,5.92,3.41,9.31,3.26s6.66-1.12,10-1.43c.47,0,.94-.07,1.42-.08A14.05,14.05,0,0,1,103.62,654.19Z" transform="translate(-27 -54.51)" opacity="0.1"/><path d="M69.55,676.86A14,14,0,0,1,56.09,657.1a11.48,11.48,0,0,1,3,2.85c1.09,1.54,1.77,3.31,3.05,4.73,2.37,2.64,6.35,3.57,9.93,3.48s6.83-.92,10.28-1.19A14,14,0,0,1,69.55,676.86Z" transform="translate(-27 -54.51)" opacity="0.1"/><path d="M76.48,704.11a14,14,0,0,1-25.59-11.45A13.8,13.8,0,0,1,54,695.4c1.34,1.63,2.22,3.48,3.76,5,2.87,2.82,7.5,4,11.63,4.09A62.17,62.17,0,0,0,76.48,704.11Z" transform="translate(-27 -54.51)" opacity="0.1"/><path d="M41.43,724.8s11.08-.34,14.42-2.72,17-5.21,17.86-1.4,16.65,19,4.15,19.06-29.06-2-32.4-4S41.43,724.8,41.43,724.8Z" transform="translate(-27 -54.51)" fill="#656380"/><path d="M78.08,738.41c-12.51.1-29.06-1.94-32.39-4-2.54-1.55-3.55-7.1-3.89-9.65h-.37s.7,8.93,4,11,19.89,4.08,32.4,4c3.61,0,4.85-1.31,4.78-3.21C82.14,737.67,80.77,738.39,78.08,738.41Z" transform="translate(-27 -54.51)" opacity="0.2"/><path d="M288.27,680.78c-4.74-8.78.64-19.54,6.82-27.37s13.73-16,13.57-26c-.23-14.34-15.45-22.81-27.62-30.42a134.77,134.77,0,0,1-24.79-19.93c-3-3.05-5.87-6.31-7.62-10.2-2.52-5.61-2.45-12-2.29-18.13q.79-30.71,3-61.34" transform="translate(-27 -54.51)" fill="none" stroke="#3f3d56" stroke-miterlimit="10" stroke-width="4"/><path d="M226.26,486.32A22.32,22.32,0,0,1,237.42,468l5,9.91-.15-12a22.37,22.37,0,1,1-16,20.42Z" transform="translate(-27 -54.51)" fill="#57b894"/><path d="M266.14,637.7a22.36,22.36,0,1,0-1.08-18l14,11.37-15.37-3.56A22.24,22.24,0,0,0,266.14,637.7Z" transform="translate(-27 -54.51)" fill="#57b894"/><path d="M277.19,594.27a22.37,22.37,0,0,0,7.09-43.88l.12,9.22-5.06-10h-.06a22.37,22.37,0,1,0-2.09,44.69Z" transform="translate(-27 -54.51)" fill="#57b894"/><path d="M222.89,558.14A22.37,22.37,0,1,0,213,516.29L217,527.12l-8.13-7.81a22.37,22.37,0,0,0,14.07,38.83Z" transform="translate(-27 -54.51)" fill="#57b894"/><path d="M229.26,492.28c5.17.56,10.19,2.17,15.37,2.49s10.87-.92,14.14-4.95c1.77-2.17,2.65-4.91,4.14-7.28a16.06,16.06,0,0,1,5.63-5.3,22.37,22.37,0,1,1-41.81,14.85C227.58,492.12,228.42,492.18,229.26,492.28Z" transform="translate(-27 -54.51)" opacity="0.1"/><path d="M222.89,558.14a22.38,22.38,0,0,0,21.28-31.9,16.34,16.34,0,0,0-4.5,4.5c-1.59,2.4-2.56,5.18-4.43,7.39-3.48,4.1-9.44,5.44-14.84,5.19s-10.6-1.78-16-2.27c-.75-.07-1.5-.12-2.26-.14A22.37,22.37,0,0,0,222.89,558.14Z" transform="translate(-27 -54.51)" opacity="0.1"/><path d="M277.19,594.27a22.37,22.37,0,0,0,21.46-31.49,17.83,17.83,0,0,0-4.73,4.55c-1.74,2.45-2.82,5.27-4.86,7.54-3.77,4.2-10.11,5.68-15.83,5.55-5.54-.13-10.87-1.48-16.38-1.91A22.36,22.36,0,0,0,277.19,594.27Z" transform="translate(-27 -54.51)" opacity="0.1"/><path d="M266.14,637.7a22.37,22.37,0,0,0,40.78-18.25,22.27,22.27,0,0,0-4.91,4.38c-2.13,2.59-3.53,5.53-6,7.94-4.57,4.49-11.95,6.34-18.52,6.52A99.32,99.32,0,0,1,266.14,637.7Z" transform="translate(-27 -54.51)" opacity="0.1"/><path d="M322,670.67s-17.65-.54-23-4.33-27.16-8.31-28.48-2.24S244,694.32,264,694.48s46.31-3.1,51.62-6.34S322,670.67,322,670.67Z" transform="translate(-27 -54.51)" fill="#656380"/><path d="M263.6,692.37c19.93.16,46.31-3.11,51.62-6.34,4-2.46,5.65-11.3,6.19-15.38l.59,0s-1.12,14.24-6.43,17.47-31.69,6.5-51.62,6.34c-5.75,0-7.74-2.09-7.63-5.12C257.12,691.19,259.31,692.33,263.6,692.37Z" transform="translate(-27 -54.51)" opacity="0.2"/><path d="M723.83,465.3V743.11a27.41,27.41,0,0,1-27.41,27.4H448.76a27.41,27.41,0,0,1-27.41-27.4V465.84A1191.52,1191.52,0,0,0,723.83,465.3Z" transform="translate(-27 -54.51)" fill="#6c63ff" opacity="0.3"/><circle cx="515" cy="353.98" r="4" fill="#6c63ff" opacity="0.3"/><circle cx="533" cy="353.98" r="4" fill="#6c63ff"/><circle cx="551" cy="353.98" r="4" fill="#6c63ff" opacity="0.3"/><circle cx="569" cy="353.98" r="4" fill="#6c63ff" opacity="0.3"/><path d="M467.37,358.33l3-136.39a8.07,8.07,0,0,1,7.3-7.85,1029.74,1029.74,0,0,1,194.08,0,8.07,8.07,0,0,1,7.34,8V358.46a8.06,8.06,0,0,1-7.67,8.05c-66.86,3.14-132.38,3.29-196.37,0A8.06,8.06,0,0,1,467.37,358.33Z" transform="translate(-27 -54.51)" fill="#6c63ff" opacity="0.3"/><path d="M723.83,215.83V370.47q-10.77-.93-21.46-2a8,8,0,0,1-7.25-8.58l9.51-136.09a8.06,8.06,0,0,1,7.67-7.49Q718.06,216.05,723.83,215.83Z" transform="translate(-27 -54.51)" fill="#6c63ff" opacity="0.3"/><path d="M421.44,215.83V370.47q10.77-.93,21.46-2a8,8,0,0,0,7.25-8.58l-9.51-136.09a8.06,8.06,0,0,0-7.67-7.49Q427.21,216.05,421.44,215.83Z" transform="translate(-27 -54.51)" fill="#6c63ff" opacity="0.3"/><rect x="462.5" y="184.48" width="74" height="17" rx="2.25" fill="#6c63ff"/><rect x="463" y="213.98" width="169" height="8" rx="2.25" fill="#6c63ff" opacity="0.3"/><rect x="463" y="234.98" width="169" height="8" rx="2.25" fill="#6c63ff" opacity="0.3"/><rect x="463" y="255.98" width="112" height="8" rx="2.25" fill="#6c63ff" opacity="0.3"/><path d="M499.14,584a18.85,18.85,0,0,1-5.41,1.49,9.54,9.54,0,0,0,4.15-5.22,18.86,18.86,0,0,1-6,2.29,9.45,9.45,0,0,0-16.08,8.6,26.75,26.75,0,0,1-19.45-9.87,9.55,9.55,0,0,0-1.27,4.75,9.44,9.44,0,0,0,4.21,7.86,9.26,9.26,0,0,1-4.29-1.18v.12a9.44,9.44,0,0,0,7.57,9.26,9.7,9.7,0,0,1-2.48.33,8.74,8.74,0,0,1-1.78-.18,9.45,9.45,0,0,0,8.82,6.56,18.87,18.87,0,0,1-11.72,4,18.62,18.62,0,0,1-2.25-.14A26.36,26.36,0,0,0,467.6,617c17.37,0,26.87-14.4,26.87-26.88,0-.41,0-.82,0-1.22A19,19,0,0,0,499.14,584Z" transform="translate(-27 -54.51)" fill="#fff"/><path d="M593.67,579.61H560.38a2.07,2.07,0,0,0-2.07,2.06V615a2.07,2.07,0,0,0,2.07,2.07H577V602.22h-4.47v-5.46H577v-4c0-4.83,3.35-7.46,7.67-7.46,2.07,0,4.29.16,4.8.22v5h-3.44c-2.34,0-2.79,1.11-2.79,2.75v3.48h5.59l-.73,5.46h-4.86V617h10.41a2.07,2.07,0,0,0,2.06-2.07V581.67A2.06,2.06,0,0,0,593.67,579.61Z" transform="translate(-27 -54.51)" fill="#fff"/><path d="M681.2,582.63a7.82,7.82,0,0,1,7.79,7.79V606a7.82,7.82,0,0,1-7.79,7.79H665.6a7.82,7.82,0,0,1-7.79-7.79v-15.6a7.82,7.82,0,0,1,7.79-7.79h15.6m0-3.12H665.6a10.94,10.94,0,0,0-10.91,10.91V606a10.94,10.94,0,0,0,10.91,10.91h15.6A10.94,10.94,0,0,0,692.11,606v-15.6A10.94,10.94,0,0,0,681.2,579.51Z" transform="translate(-27 -54.51)" fill="#fff"/><path d="M683.53,590.42a2.34,2.34,0,1,1,2.34-2.33A2.33,2.33,0,0,1,683.53,590.42ZM673.4,592a6.24,6.24,0,1,1-6.24,6.24A6.25,6.25,0,0,1,673.4,592m0-3.11a9.36,9.36,0,1,0,9.36,9.35A9.35,9.35,0,0,0,673.4,588.87Z" transform="translate(-27 -54.51)" fill="#fff"/><circle cx="759.46" cy="413.52" r="18.57" fill="#3f3d56"/><ellipse cx="804.77" cy="454.75" rx="52.1" ry="67.5" fill="#3f3d56"/><path d="M831.77,556.37c-26.1,0-47.72-24.86-51.51-57.3a87.45,87.45,0,0,0-.59,10.19c0,37.28,23.32,67.5,52.1,67.5s52.09-30.22,52.09-67.5a87.45,87.45,0,0,0-.59-10.19C879.48,531.51,857.86,556.37,831.77,556.37Z" transform="translate(-27 -54.51)" opacity="0.1"/><path d="M937.78,706.94c-1.12,4.6-5.94,8.28-11.29,10.85-11.23,5.41-25.08,7-38.52,7.57a66.63,66.63,0,0,1-10.29-.19c-7-.84-13.56-3.84-17.64-8.11a2.42,2.42,0,0,1,.07-4.1c7.15-7.86,19.09-12.67,31.12-16.14,9.12-2.64,25-9.45,35-8.53C935.83,689.18,939.19,701.13,937.78,706.94Z" transform="translate(-27 -54.51)" fill="#3f3d56"/><path d="M937.78,706.94c-1.12,4.6-5.94,8.28-11.29,10.85-11.23,5.41-25.08,7-38.52,7.57a66.63,66.63,0,0,1-10.29-.19c-7-.84-13.56-3.84-17.64-8.11a2.42,2.42,0,0,1,.07-4.1c7.15-7.86,19.09-12.67,31.12-16.14,9.12-2.64,25-9.45,35-8.53C935.83,689.18,939.19,701.13,937.78,706.94Z" transform="translate(-27 -54.51)" opacity="0.1"/><path d="M795,672.58a28.43,28.43,0,0,0-1.72,21.7,37.85,37.85,0,0,0,12.71,18c14.53,11.65,34.53,13.25,53.16,13.09A410.57,410.57,0,0,0,907.92,722c5.4-.7,10.85-1.52,15.84-3.68,6.08-2.63,11.42-7.45,13.59-13.71s.63-13.93-4.51-18.11c-4.52-3.67-10.75-4.17-16.56-4.52L883,680c3.29-3.32,7.66-5.2,11.66-7.62,5.3-3.21,8.83-8.59,12.69-13.44,5.76-7.25,12.57-13.58,19.34-19.89,1.09,6.2,5,11.3,9.63,15.58s9.95,7.73,14.75,11.81c11.63,9.87,20,23.27,32.24,32.39a63.08,63.08,0,0,0,23.1-11.53l-4.75-8.61a5.73,5.73,0,0,0-1.79-2.24c-1.35-.83-3.08-.4-4.65-.64-4.17-.62-6-5.44-7.63-9.34-4.5-10.68-13.12-19-20.47-27.93a140.94,140.94,0,0,1-14.39-21.2c-2.48-4.46-4.74-9.11-8.09-13s-8.06-6.87-13.16-6.88c-4.51,0-8.67,2.28-12.55,4.58a332.58,332.58,0,0,0-34,23.18c-5.67,4.41-11.32,9.06-18,11.77-2.8,1.13-5.76,1.91-8.45,3.3-4.71,2.42-8.29,6.52-12.14,10.17C832.65,663.49,813.85,671.9,795,672.58Z" transform="translate(-27 -54.51)" fill="#3f3d56"/><path d="M864.47,580.11a34.55,34.55,0,0,1-2.5,11.57c-1.64,3.61-4.53,6.81-8.3,8a17.72,17.72,0,0,1-8.1.26,15.62,15.62,0,0,1-6.6-2.24c-3.11-2.15-4.67-6-5.23-9.71s-.32-7.56-.68-11.32a61.48,61.48,0,0,0-1.73-9c-.24-1-.49-2-.74-2.94s-.47-2-.69-2.93-.39-1.85-.54-2.78c-.14-.78-.25-1.57-.34-2.36-.26-2.33-.3-4.74-1.16-6.93a21.88,21.88,0,0,0-2.43-4.11c-.41-.59-.81-1.17-1.18-1.79a8.44,8.44,0,0,1-1.4-5.39,5,5,0,0,1,.21-.87c0-.11.08-.21.13-.32a2.62,2.62,0,0,0,1.77-1.65,4.88,4.88,0,0,0-.22-2.56,16.13,16.13,0,0,0-1.38-3.29c-.38-.69-1.67-1.93-1.68-2.72,0-1.59,3.08-2.87,4.34-3.49A24.19,24.19,0,0,1,838.39,521c2.74.18,5.72,1,7.23,3.32,1.36,2.07,1.18,4.76,1.76,7.16a2.05,2.05,0,0,0,.43,1,1.93,1.93,0,0,0,1.06.49,6.65,6.65,0,0,0,2,.08h0a4.85,4.85,0,0,0,.53-.08,7.11,7.11,0,0,0,2.93-1.26c.56-.15,1.12-.27,1.7-.37h.06c2.27,7.16,2.57,14.84,4.43,22.13.91,3.63,2.23,7.21,2.42,10.95,0,.16,0,.33,0,.5,0,1.2-.07,2.41,0,3.6a12.24,12.24,0,0,0,.18,1.6,24.19,24.19,0,0,0,.76,2.51v0c.09.26.17.53.24.79s.1.39.13.58v0A21.86,21.86,0,0,1,864.47,580.11Z" transform="translate(-27 -54.51)" fill="#fbbebe"/><circle cx="805.67" cy="452.03" r="26.73" fill="#fbbebe"/><path d="M1002.37,652.17a43.79,43.79,0,0,0-7.54-20.3q1,6.18,2.08,12.36a4.63,4.63,0,0,1-4.85-1.49,15.05,15.05,0,0,1-2.54-4.72,96.87,96.87,0,0,0-11.82-21.21c-17-1.42-33.83-8.47-48.8-16.7s-29-18.07-43.74-26.63a62.47,62.47,0,0,0-8-4.08c-4.62-1.85-9.81-2.81-14.19-5l-.88-.46a17.57,17.57,0,0,1-2.8-1.88,15.49,15.49,0,0,1-1.34-1.23c-2.32-2.41-3.75-5.53-5.12-8.57-2.36-5.2-3.19-11.48-5.54-16.68a16.16,16.16,0,0,1,3.6-2.54h0l.57-.29a16.36,16.36,0,0,1,2.89-1c.56-.15,1.12-.27,1.7-.37h.06a16.7,16.7,0,0,1,7.91.62c3.72,1.26,6.86,3.78,10,6.15,5,3.76,10.11,7.29,14.61,11.59,2.58,2.48,4.94,5.19,7.72,7.44a59.27,59.27,0,0,0,7.28,4.83q22.53,13.42,45.08,26.85c5.09,3,10.18,6.06,15.16,9.27,7.55,4.87,14.84,10.15,22.12,15.43l12.86,9.33a14,14,0,0,1,3.65,3.37,12.11,12.11,0,0,1,1.62,4.94A45.26,45.26,0,0,1,1002.37,652.17Z" transform="translate(-27 -54.51)" fill="#fbbebe"/><path d="M871.09,600.21c-1.8,8.09-10,13-14.24,20.08-5.31,8.82-3.15,19.07-1.15,29.16l-10.94,9.42c-2,1.73-4,3.46-6.18,5a82.54,82.54,0,0,1-9.88,5.67l-9.68,5a46,46,0,0,1-9.47,4c-6.36,1.63-13.11.49-19.39-1.4a8.21,8.21,0,0,1-2.12-.86,3.52,3.52,0,0,1-1-.91,5.65,5.65,0,0,1-.64-3.66c.64-10.58,3.23-20.94,5.8-31.22a92.52,92.52,0,0,1,13.34-32.73C809,602,812.42,596.13,817,591.17c1.95-2.14,4.13-4.18,5.29-6.83,1.61-3.67,1-7.87,1.31-11.87a24.85,24.85,0,0,1,2.35-8.65h0a24.25,24.25,0,0,1,2.51-4.15l1.32,3.07.86,2,1.11,2.58c1,2.45,2.11,4.9,3.16,7.36,1.3,3,2.63,6.09,4.8,8.55s5.38,4.25,8.65,3.91c3.08-.34,5.71-2.51,7.37-5.13a31,31,0,0,0,3.27-8.66,27.74,27.74,0,0,0,.36-11.28c-1.09-7.21-4.16-14.58-6.39-21.28a21.7,21.7,0,0,1-1.55-7,4.45,4.45,0,0,1,.08-.81c0-.07,0-.14,0-.21a16.36,16.36,0,0,1,2.89-1c.56-.15,1.12-.27,1.7-.37Q859,547.27,862,563.2c0,.25.09.5.14.75.28,1.52.57,3,.88,4.56s.6,2.75.94,4.11v0c.12.46.24.92.37,1.37v0c.34,1.25.73,2.49,1.17,3.71C868.16,585.14,872.8,592.56,871.09,600.21Z" transform="translate(-27 -54.51)" fill="#ff6584"/><path d="M979.57,713.85a9.43,9.43,0,0,0,.88,4.53c1.67,3.06,5.68,3.75,9.16,4a271.08,271.08,0,0,0,60.85-1.86,6.88,6.88,0,0,0,3.09-1c2.87-2,1.1-6.9-2-8.47s-6.84-1.19-10.27-1.87-6.57-2.42-9.61-4.17q-10.44-6-20.58-12.5c-4-2.59-8.77-5.34-13.3-3.81C985.48,692.93,979.49,700.61,979.57,713.85Z" transform="translate(-27 -54.51)" fill="#ff6584"/><path d="M830,561.24h0c0,.2-.06.38-.1.57s-.11.62-.17.93c-.56,2.87-1.25,5.74-2,8.58-2.18,7.86-5.09,15.59-8,23.21q-11.62,30.65-23.27,61.3c-2,5.15-3.91,10.3-6.13,15.34L788,676.26c-2.73,6.13-5.35,12.46-6.22,19-.57,4.32-1.15,8.74-.28,13s3.47,8.45,7.53,10c2,.77,4.83,1.81,4.28,3.87-.29,1.14-1.58,1.69-2.73,1.88a10.53,10.53,0,0,1-8.59-2.47c-2.17-1.93-3.84-4.92-6.72-5.25-2-.21-3.84,1-5.67,1.82-7.47,3.41-16.17,1-24-1.4.62-3.17,3.81-5.27,7-5.9s6.45-.19,9.68-.27a5.12,5.12,0,0,0,2.94-.76,5.35,5.35,0,0,0,1.58-2.71,113.93,113.93,0,0,0,4.63-18.93c1-6.72,1.47-13.54,3-20.17,1.16-5.18,2.94-10.2,4.47-15.28,3.14-10.41,5.22-21.11,7.29-31.78a114.1,114.1,0,0,0,2.05-13.49c.26-3.76.13-7.54.5-11.29a87.93,87.93,0,0,1,3-14.39q2.07-7.69,4.15-15.39c2.05-7.59,4.26-15.47,9.46-21.37a20.1,20.1,0,0,1,14.43-6.89,14.29,14.29,0,0,1,3.07.33l.5.13a12.17,12.17,0,0,1,3.13,1.29c1.61-1,2.42-.66,3.49.91a10.13,10.13,0,0,1,1.27,5.47A75.92,75.92,0,0,1,830,561.24Z" transform="translate(-27 -54.51)" fill="#fbbebe"/><path d="M831.77,567.25l-.07.07-.37.36-3.64,3.64-1.79-7.5-6.12-25.7a14.29,14.29,0,0,1,3.07.33,5,5,0,0,1,.21-.87l.29,1,2.08,7,3.93,13.4.64,2.21h0Z" transform="translate(-27 -54.51)" fill="#ff6584"/><rect x="769.88" y="412.62" width="57.99" height="36.24" rx="12" fill="#3f3d56"/><circle cx="848.26" cy="413.52" r="18.57" fill="#3f3d56"/><path d="M874.8,449.46l-.68,0a18.57,18.57,0,0,1,0,37.11l.68,0a18.58,18.58,0,1,0,0-37.15Z" transform="translate(-27 -54.51)" opacity="0.1"/><path d="M786.46,449.46l.68,0a18.57,18.57,0,0,0,0,37.11l-.68,0a18.58,18.58,0,0,1,0-37.15Z" transform="translate(-27 -54.51)" opacity="0.1"/><path d="M849.43,499.75H802.32a5.46,5.46,0,0,1-5.44-5.44v3.62a5.46,5.46,0,0,0,5.44,5.44h47.11a5.46,5.46,0,0,0,5.44-5.44v-3.62A5.46,5.46,0,0,1,849.43,499.75Z" transform="translate(-27 -54.51)" opacity="0.1"/><path d="M901.37,787.33l3-136.39a8.07,8.07,0,0,1,7.3-7.85,1029.74,1029.74,0,0,1,194.08,0,8.07,8.07,0,0,1,7.34,8V787.46a8.06,8.06,0,0,1-7.67,8c-66.86,3.14-132.38,3.29-196.37,0A8.06,8.06,0,0,1,901.37,787.33Z" transform="translate(-27 -54.51)" fill="#f2f2f2"/><rect x="896.5" y="613.48" width="74" height="17" rx="2.25" fill="#6c63ff"/><rect x="897" y="642.98" width="169" height="8" rx="2.25" fill="#6c63ff" opacity="0.3"/><rect x="897" y="663.98" width="169" height="8" rx="2.25" fill="#6c63ff" opacity="0.3"/><rect x="897" y="684.98" width="112" height="8" rx="2.25" fill="#6c63ff" opacity="0.3"/><path d="M987.94,634.33s4.69,13.49,9,9.9l-3.41-17.64Z" transform="translate(-27 -54.51)" fill="#fbbebe"/></svg>